<svg id="visual" viewBox="0 0 3840 3840" width="3840" height="3840" xmlns="http://www.w3.org/2000/svg" xmlns:xlink="http://www.w3.org/1999/xlink" version="1.1"><rect x="0" y="0" width="3840" height="3840" fill="#001220"></rect><path d="M0 2692L64 2752.8C128 2813.7 256 2935.3 384 2963.2C512 2991 640 2925 768 2878.5C896 2832 1024 2805 1152 2829.7C1280 2854.3 1408 2930.7 1536 2934C1664 2937.3 1792 2867.7 1920 2808.5C2048 2749.3 2176 2700.7 2304 2761.5C2432 2822.3 2560 2992.7 2688 2981.5C2816 2970.3 2944 2777.7 3072 2779.3C3200 2781 3328 2977 3456 3005.7C3584 3034.3 3712 2895.7 3776 2826.3L3840 2757L3840 3841L3776 3841C3712 3841 3584 3841 3456 3841C3328 3841 3200 3841 3072 3841C2944 3841 2816 3841 2688 3841C2560 3841 2432 3841 2304 3841C2176 3841 2048 3841 1920 3841C1792 3841 1664 3841 1536 3841C1408 3841 1280 3841 1152 3841C1024 3841 896 3841 768 3841C640 3841 512 3841 384 3841C256 3841 128 3841 64 3841L0 3841Z" fill="#fa7268"></path><path d="M0 2828L64 2834.3C128 2840.7 256 2853.3 384 2928.7C512 3004 640 3142 768 3195C896 3248 1024 3216 1152 3216.7C1280 3217.3 1408 3250.7 1536 3270.7C1664 3290.7 1792 3297.3 1920 3214C2048 3130.7 2176 2957.3 2304 2897.5C2432 2837.7 2560 2891.3 2688 2961C2816 3030.7 2944 3116.3 3072 3159C3200 3201.7 3328 3201.3 3456 3215.3C3584 3229.3 3712 3257.7 3776 3271.8L3840 3286L3840 3841L3776 3841C3712 3841 3584 3841 3456 3841C3328 3841 3200 3841 3072 3841C2944 3841 2816 3841 2688 3841C2560 3841 2432 3841 2304 3841C2176 3841 2048 3841 1920 3841C1792 3841 1664 3841 1536 3841C1408 3841 1280 3841 1152 3841C1024 3841 896 3841 768 3841C640 3841 512 3841 384 3841C256 3841 128 3841 64 3841L0 3841Z" fill="#ef5f67"></path><path d="M0 3007L64 3079.5C128 3152 256 3297 384 3290.2C512 3283.3 640 3124.7 768 3056.3C896 2988 1024 3010 1152 3058.2C1280 3106.3 1408 3180.7 1536 3196.5C1664 3212.3 1792 3169.7 1920 3154.7C2048 3139.7 2176 3152.3 2304 3179.5C2432 3206.7 2560 3248.3 2688 3227.5C2816 3206.7 2944 3123.3 3072 3083C3200 3042.7 3328 3045.3 3456 3101C3584 3156.7 3712 3265.3 3776 3319.7L3840 3374L3840 3841L3776 3841C3712 3841 3584 3841 3456 3841C3328 3841 3200 3841 3072 3841C2944 3841 2816 3841 2688 3841C2560 3841 2432 3841 2304 3841C2176 3841 2048 3841 1920 3841C1792 3841 1664 3841 1536 3841C1408 3841 1280 3841 1152 3841C1024 3841 896 3841 768 3841C640 3841 512 3841 384 3841C256 3841 128 3841 64 3841L0 3841Z" fill="#e34c67"></path><path d="M0 3438L64 3446.3C128 3454.7 256 3471.3 384 3500C512 3528.7 640 3569.3 768 3581C896 3592.7 1024 3575.3 1152 3540.8C1280 3506.3 1408 3454.7 1536 3444.3C1664 3434 1792 3465 1920 3473.8C2048 3482.7 2176 3469.3 2304 3456.2C2432 3443 2560 3430 2688 3402.2C2816 3374.3 2944 3331.7 3072 3324.8C3200 3318 3328 3347 3456 3368.7C3584 3390.3 3712 3404.7 3776 3411.8L3840 3419L3840 3841L3776 3841C3712 3841 3584 3841 3456 3841C3328 3841 3200 3841 3072 3841C2944 3841 2816 3841 2688 3841C2560 3841 2432 3841 2304 3841C2176 3841 2048 3841 1920 3841C1792 3841 1664 3841 1536 3841C1408 3841 1280 3841 1152 3841C1024 3841 896 3841 768 3841C640 3841 512 3841 384 3841C256 3841 128 3841 64 3841L0 3841Z" fill="#d53867"></path><path d="M0 3492L64 3488.7C128 3485.3 256 3478.7 384 3489.2C512 3499.7 640 3527.3 768 3533.3C896 3539.3 1024 3523.7 1152 3532.2C1280 3540.7 1408 3573.3 1536 3587.3C1664 3601.3 1792 3596.7 1920 3564.5C2048 3532.3 2176 3472.7 2304 3469.5C2432 3466.3 2560 3519.7 2688 3564.2C2816 3608.7 2944 3644.3 3072 3625.2C3200 3606 3328 3532 3456 3522.3C3584 3512.7 3712 3567.3 3776 3594.7L3840 3622L3840 3841L3776 3841C3712 3841 3584 3841 3456 3841C3328 3841 3200 3841 3072 3841C2944 3841 2816 3841 2688 3841C2560 3841 2432 3841 2304 3841C2176 3841 2048 3841 1920 3841C1792 3841 1664 3841 1536 3841C1408 3841 1280 3841 1152 3841C1024 3841 896 3841 768 3841C640 3841 512 3841 384 3841C256 3841 128 3841 64 3841L0 3841Z" fill="#c62368"></path></svg>